<svg xmlns="http://www.w3.org/2000/svg" xmlns:xlink="http://www.w3.org/1999/xlink" xmlns:serif="http://www.serif.com/" viewBox="0 0 24 30" version="1.1" xml:space="preserve" style="" x="0px" y="0px" fill-rule="evenodd" clip-rule="evenodd" stroke-linejoin="round" stroke-miterlimit="2"><g><g><path d="M8.818,15.889l7.071,-7.071c0.195,-0.195 0.195,-0.512 0,-0.707c-0.195,-0.195 -0.512,-0.195 -0.707,-0l-7.071,7.071c-0.195,0.195 -0.195,0.512 -0,0.707c0.195,0.195 0.512,0.195 0.707,0Z"/><path d="M15.889,15.182l-7.071,-7.071c-0.195,-0.195 -0.512,-0.195 -0.707,-0c-0.195,0.195 -0.195,0.512 -0,0.707l7.071,7.071c0.195,0.195 0.512,0.195 0.707,0c0.195,-0.195 0.195,-0.512 0,-0.707Z"/></g></g><text x="0" y="39" fill="#000000" font-size="5px" font-weight="bold" font-family="'Helvetica Neue', Helvetica, Arial-Unicode, Arial, Sans-serif">Created by Saktianto Adhi Pambudi</text><text x="0" y="44" fill="#000000" font-size="5px" font-weight="bold" font-family="'Helvetica Neue', Helvetica, Arial-Unicode, Arial, Sans-serif">from the Noun Project</text></svg>