<svg xmlns="http://www.w3.org/2000/svg" width="113.24" height="108.096" viewBox="0 0 113.24 108.096">
  <g id="Group_331" data-name="Group 331" transform="translate(-96.259 -695.82)">
    <g id="Group_330" data-name="Group 330">
      <path id="Path_68" data-name="Path 68" d="M0,0,13.094-7.343a3.3,3.3,0,0,1,4.612,1.5L23.984,7.793a3.3,3.3,0,0,0,2.611,1.9l14.91,1.757a3.3,3.3,0,0,1,2.85,3.922L41.418,30.092a3.3,3.3,0,0,0,1,3.07L53.445,43.346a3.3,3.3,0,0,1,0,4.849L42.416,58.38a3.3,3.3,0,0,0-1,3.07l2.937,14.722a3.3,3.3,0,0,1-2.85,3.923l-14.91,1.757a3.3,3.3,0,0,0-2.611,1.9L17.706,97.386a3.3,3.3,0,0,1-4.612,1.5L0,91.542a3.3,3.3,0,0,0-3.228,0l-13.1,7.342a3.3,3.3,0,0,1-4.611-1.5l-6.278-13.637a3.3,3.3,0,0,0-2.611-1.9L-44.733,80.1a3.3,3.3,0,0,1-2.85-3.923l2.937-14.722a3.3,3.3,0,0,0-1-3.07L-56.673,48.195a3.3,3.3,0,0,1,0-4.849l11.029-10.184a3.3,3.3,0,0,0,1-3.07l-2.937-14.723a3.3,3.3,0,0,1,2.85-3.922l14.91-1.757a3.3,3.3,0,0,0,2.611-1.9l6.278-13.637a3.3,3.3,0,0,1,4.611-1.5L-3.228,0A3.3,3.3,0,0,0,0,0Z" transform="translate(154.494 704.098)" fill="none" stroke="#7bc369" stroke-miterlimit="10" stroke-width="1"/>
      <path id="Path_116" data-name="Path 116" d="M0,0H-12V-4.13a1.88,1.88,0,0,1,1.879-1.88h8.242A1.88,1.88,0,0,1,0-4.13Z" transform="translate(173.915 725.879)" fill="#7bc369"/>
      <path id="Path_117" data-name="Path 117" d="M0,0H-17.332a3.354,3.354,0,0,1-3.353-3.354V-38.835a12,12,0,0,1,12-12h.044a12,12,0,0,1,12,12V-3.354A3.354,3.354,0,0,1,0,0" transform="translate(176.6 779.869)" fill="#7bc369"/>
      <path id="Path_118" data-name="Path 118" d="M0,0H10.123a.938.938,0,0,1,.939.938v1.4h-12V.938A.938.938,0,0,1,0,0" transform="translate(162.853 728.691)" fill="#7bc369"/>
      <path id="Path_119" data-name="Path 119" d="M0,0H-7.826a.937.937,0,0,1-.937-.937v-.938h9.7v.938A.937.937,0,0,1,0,0" transform="translate(171.828 727.754)" fill="#7bc369"/>
      <path id="Path_120" data-name="Path 120" d="M0,0H-11.441a1.88,1.88,0,0,1-1.88-1.88V-16.121A1.88,1.88,0,0,1-11.441-18H0a1.88,1.88,0,0,1,1.88,1.88V-1.88A1.88,1.88,0,0,1,0,0" transform="translate(173.655 758.818)" fill="#fff"/>
      <path id="Path_121" data-name="Path 121" d="M0,0A19.441,19.441,0,0,1-8.709,2.045,19.526,19.526,0,0,1-28.235-17.481,19.526,19.526,0,0,1-8.709-37.007,19.453,19.453,0,0,1,0-34.963Z" transform="translate(154.04 777.824)" fill="#7bc369"/>
      <path id="Path_122" data-name="Path 122" d="M0,0A13.368,13.368,0,0,1-8.685,3.194a13.451,13.451,0,0,1-13.434-13.44A13.452,13.452,0,0,1-8.685-23.686,13.369,13.369,0,0,1,0-20.491" transform="translate(154.01 770.589)" fill="#7bc369" stroke="#fff" stroke-linecap="round" stroke-miterlimit="10" stroke-width="1"/>
      <path id="Path_123" data-name="Path 123" d="M0,0H0A.843.843,0,0,1-1.193,0l-.4-.4a.843.843,0,0,1,0-1.193.844.844,0,0,1,1.193,0l.4.4A.844.844,0,0,1,0,0" transform="translate(150.776 722.16)" fill="#7bc369"/>
      <path id="Path_124" data-name="Path 124" d="M0,0H0A.843.843,0,0,1-1.193,0l-.4-.4a.843.843,0,0,1,0-1.193.843.843,0,0,1,1.193,0l.4.4A.844.844,0,0,1,0,0" transform="translate(153.795 725.179)" fill="#7bc369"/>
      <path id="Path_125" data-name="Path 125" d="M0,0H0A.843.843,0,0,1,0-1.193l.4-.4a.844.844,0,0,1,1.193,0,.844.844,0,0,1,0,1.193l-.4.4A.843.843,0,0,1,0,0" transform="translate(152.204 722.16)" fill="#7bc369"/>
      <path id="Path_126" data-name="Path 126" d="M0,0H0A.843.843,0,0,1,0-1.193l.4-.4a.843.843,0,0,1,1.193,0,.844.844,0,0,1,0,1.193l-.4.4A.843.843,0,0,1,0,0" transform="translate(149.185 725.179)" fill="#7bc369"/>
      <path id="Path_127" data-name="Path 127" d="M0,0H0A1.125,1.125,0,0,1-1.125-1.125v-.75A1.125,1.125,0,0,1,0-3,1.125,1.125,0,0,1,1.125-1.875v.75A1.125,1.125,0,0,1,0,0" transform="translate(139.028 733.989)" fill="#7bc369"/>
      <path id="Path_128" data-name="Path 128" d="M0,0H0A1.125,1.125,0,0,1-1.125-1.125v-.75A1.125,1.125,0,0,1,0-3,1.125,1.125,0,0,1,1.125-1.875v.75A1.125,1.125,0,0,1,0,0" transform="translate(139.028 739.682)" fill="#7bc369"/>
      <path id="Path_129" data-name="Path 129" d="M0,0H0A1.125,1.125,0,0,1,1.125-1.125h.75A1.125,1.125,0,0,1,3,0,1.125,1.125,0,0,1,1.875,1.125h-.75A1.125,1.125,0,0,1,0,0" transform="translate(140.374 735.336)" fill="#7bc369"/>
      <path id="Path_130" data-name="Path 130" d="M0,0H0A1.125,1.125,0,0,1,1.125-1.125h.75A1.125,1.125,0,0,1,3,0,1.125,1.125,0,0,1,1.875,1.125h-.75A1.125,1.125,0,0,1,0,0" transform="translate(134.682 735.336)" fill="#7bc369"/>
    </g>
  </g>
</svg>
