<svg xmlns="http://www.w3.org/2000/svg" width="98.867" height="90.715" viewBox="0 0 98.867 90.715">
  <g id="Group_292" data-name="Group 292" transform="translate(-1287.04 -810.892)">
    <path id="Path_264" data-name="Path 264" d="M0,0A23.591,23.591,0,0,0-16.911-28.01a23.554,23.554,0,0,0-18.955,2.989,20.446,20.446,0,0,0-11.365-7.87A20.467,20.467,0,0,0-72.307-18.44c-.156.582-.29,1.169-.39,1.755A24.409,24.409,0,0,0-89.041.325,24.457,24.457,0,0,0-82.99,23.671,23.23,23.23,0,0,0-65.779,46.983,23.092,23.092,0,0,0-51.5,46.25a24.994,24.994,0,0,0,12.584,7.932,25.077,25.077,0,0,0,27.4-10.344A27.38,27.38,0,0,0,5.778,25.1,27.425,27.425,0,0,0,0,0Z" transform="translate(1378.058 845.535)" fill="#fff" stroke="#0069f0" stroke-width="2"/>
    <g id="Group_289" data-name="Group 289" transform="translate(1332.816 843.314)">
      <path id="Path_8" data-name="Path 8" d="M0,0C-.639,2.384-2.159,4.048-3.395,3.717S-5.115,1.185-4.477-1.2s2.159-4.048,3.4-3.717S.639-2.384,0,0" fill="#0069f0"/>
    </g>
    <g id="Group_290" data-name="Group 290" transform="translate(1349.306 847.127)">
      <path id="Path_9" data-name="Path 9" d="M0,0C-.54,2.533-2.042,4.36-3.356,4.08s-1.94-2.56-1.4-5.093S-2.715-5.373-1.4-5.094.54-2.533,0,0" fill="#0069f0"/>
    </g>
    <g id="Group_291" data-name="Group 291" transform="translate(1323.204 852.612)">
      <path id="Path_10" data-name="Path 10" d="M0,0C.518.139,1.124,2.024-.084,6.533A7.623,7.623,0,0,1-.912,8.589S1.795,13.2,9.778,15.342A25.33,25.33,0,0,0,24,15.152a10.555,10.555,0,0,1,.317-4.915C25.118,7.231,26.689,5.929,27,6.013s-.291,1.088-.541,2.021c-.792,2.955-.632,8.164-.025,9.216s.588,2.158-.086,1.977-1.9-2.844-1.9-2.844a23.039,23.039,0,0,1-14.973.933C1.022,15.052-1.75,9.642-1.75,9.642S-3.468,11.9-5.023,11.488s1.633-1.267,3.249-5.56C-.367,2.193-.518-.139,0,0" fill="#0069f0"/>
    </g>
  </g>
</svg>
