<svg xmlns="http://www.w3.org/2000/svg" width="90.422" height="98" viewBox="0 0 90.422 98">
  <g id="Group_338" data-name="Group 338" transform="translate(-107.669 -467.785)">
    <g id="Group_337" data-name="Group 337">
      <g id="Group_336" data-name="Group 336">
        <path id="Path_203" data-name="Path 203" d="M0,0A8.592,8.592,0,0,0-7.454,4.321H7.454A8.592,8.592,0,0,0,0,0" transform="translate(165.024 537.264)" fill="#fff"/>
      </g>
      <g id="Group_335" data-name="Group 335">
        <path id="Path_202" data-name="Path 202" d="M0,0H1.306A9.563,9.563,0,0,1,9.379-4.557a9.5,9.5,0,0,1,6.8,2.893V-31.713h-39.79V6.336H1.518Z" transform="translate(155.644 540.933)" fill="#faaf4a"/>
        <g id="Group_334" data-name="Group 334">
          <path id="Path_200" data-name="Path 200" d="M0,0V48.99a3.872,3.872,0,0,1-3.895,3.848H-85.527a3.872,3.872,0,0,1-3.895-3.848V.479A44.743,44.743,0,0,1-44.886-44.162C-20.118-44.255,0-24.455,0,0Z" transform="translate(197.591 512.447)" fill="none" stroke="#faaf4a" stroke-miterlimit="10" stroke-width="1"/>
          <path id="Path_204" data-name="Path 204" d="M0,0H-39.789V-9.554a1.779,1.779,0,0,1,1.779-1.779H-1.779A1.78,1.78,0,0,1,0-9.554Z" transform="translate(171.789 507.444)" fill="#faaf4a"/>
          <path id="Path_205" data-name="Path 205" d="M0,0A5.262,5.262,0,0,1-5.262,5.262,5.262,5.262,0,0,1-10.524,0,5.262,5.262,0,0,1-5.262-5.262,5.262,5.262,0,0,1,0,0" transform="translate(153.056 523.483)" fill="#fff"/>
          <path id="Path_207" data-name="Path 207" d="M0,0A2.631,2.631,0,0,1-2.631,2.631,2.631,2.631,0,0,1-5.262,0,2.631,2.631,0,0,1-2.631-2.631,2.631,2.631,0,0,1,0,0" transform="translate(161.979 525.331)" fill="#fff"/>
          <path id="Path_209" data-name="Path 209" d="M0,0A2.631,2.631,0,0,1-2.631,2.631,2.631,2.631,0,0,1-5.262,0,2.631,2.631,0,0,1-2.631-2.631,2.631,2.631,0,0,1,0,0" transform="translate(157.936 534.633)" fill="#fff"/>
          <path id="Path_212" data-name="Path 212" d="M0,0V.856H24.836L24.615,0Z" transform="translate(132 544.992)" fill="#fff"/>
          <path id="Path_213" data-name="Path 213" d="M0,0H-1.067l2.13,8.526h12.79L15.985,0H0Z" transform="translate(157.57 541.585)" fill="#faaf4a"/>
          <path id="Path_214" data-name="Path 214" d="M0,0-.712,2.847H11.369V0Z" transform="translate(173.555 541.585)" fill="#faaf4a"/>
          <path id="Path_215" data-name="Path 215" d="M0,0A8.568,8.568,0,0,0-7,3.635H7A8.568,8.568,0,0,0,0,0" transform="translate(165.024 537.265)" fill="#faaf4a"/>
        </g>
      </g>
    </g>
  </g>
</svg>
