<svg xmlns="http://www.w3.org/2000/svg" width="327.403" height="147.973" viewBox="0 0 327.403 147.973">
  <g id="Group_341" data-name="Group 341" transform="translate(-1401.784 -778.901)">
    <g id="Group_340" data-name="Group 340">
      <g id="Group_325" data-name="Group 325" transform="translate(-95.813 56.726)">
        <path id="Path_274" data-name="Path 274" d="M0,0C8.839,32.989-56.93,79.275-146.9,103.382S-316.971,120.29-325.811,87.3-268.88,8.026-178.91-16.082-8.839-32.989,0,0" transform="translate(1824.204 752.512)" fill="#7bc369"/>
        <g id="Group" transform="translate(96 870.148)">
          <text id="Sounds" transform="matrix(0.966, -0.259, 0.259, 0.966, 1445.677, -45.636)" fill="#fff" font-size="32" font-family="AktivGroteskEx-Regular, Aktiv Grotesk Ex" letter-spacing="-0.017em"><tspan x="0" y="0">Sounds</tspan></text>
          <text id="_pr" data-name=" pr" transform="matrix(0.966, -0.259, 0.259, 0.966, 1573.274, -79.826)" fill="#fff" font-size="32" font-family="AktivGroteskEx-Regular, Aktiv Grotesk Ex" letter-spacing="-0.017em"><tspan x="0" y="0" xml:space="preserve"> pr</tspan></text>
          <text id="e" transform="matrix(0.966, -0.259, 0.259, 0.966, 1615.998, -91.274)" fill="#fff" font-size="32" font-family="AktivGroteskEx-Regular, Aktiv Grotesk Ex" letter-spacing="-0.017em"><tspan x="0" y="0">e</tspan></text>
          <text id="t" transform="matrix(0.966, -0.259, 0.259, 0.966, 1635.965, -96.624)" fill="#fff" font-size="32" font-family="AktivGroteskEx-Regular, Aktiv Grotesk Ex" letter-spacing="-0.017em"><tspan x="0" y="0">t</tspan></text>
          <text id="t-2" data-name="t" transform="matrix(0.966, -0.259, 0.259, 0.966, 1649.735, -100.314)" fill="#fff" font-size="32" font-family="AktivGroteskEx-Regular, Aktiv Grotesk Ex" letter-spacing="-0.017em"><tspan x="0" y="0">t</tspan></text>
          <text id="y" transform="matrix(0.966, -0.259, 0.259, 0.966, 1663.713, -104.059)" fill="#fff" font-size="32" font-family="AktivGroteskEx-Regular, Aktiv Grotesk Ex" letter-spacing="-0.017em"><tspan x="0" y="0">y</tspan></text>
          <text id="_" data-name=" " transform="matrix(0.966, -0.259, 0.259, 0.966, 1682.846, -109.186)" fill="#fff" font-size="32" font-family="AktivGroteskEx-Regular, Aktiv Grotesk Ex" letter-spacing="-0.017em"><tspan x="0" y="0"> </tspan></text>
          <text id="n" transform="matrix(0.966, -0.259, 0.259, 0.966, 1462.493, -19.101)" fill="#fff" font-size="32" font-family="AktivGroteskEx-Regular, Aktiv Grotesk Ex" letter-spacing="-0.023em"><tspan x="0" y="0">n</tspan></text>
          <text id="eat" transform="matrix(0.966, -0.259, 0.259, 0.966, 1483.531, -24.738)" fill="#fff" font-size="32" font-family="AktivGroteskEx-Regular, Aktiv Grotesk Ex" letter-spacing="-0.023em"><tspan x="0" y="0">eat</tspan></text>
          <text id="_-" data-name="-" transform="matrix(0.966, -0.259, 0.259, 0.966, 1534.12, -38.293)" fill="#fff" font-size="32" font-family="AktivGroteskEx-Regular, Aktiv Grotesk Ex" letter-spacing="-0.023em"><tspan x="0" y="0">-</tspan></text>
          <text id="o" transform="matrix(0.966, -0.259, 0.259, 0.966, 1548.567, -42.164)" fill="#fff" font-size="32" font-family="AktivGroteskEx-Regular, Aktiv Grotesk Ex" letter-spacing="-0.023em"><tspan x="0" y="0">o</tspan></text>
          <text id="_2" data-name="," transform="matrix(0.966, -0.259, 0.259, 0.966, 1569.54, -47.784)" fill="#fff" font-size="32" font-family="AktivGroteskEx-Regular, Aktiv Grotesk Ex" letter-spacing="-0.023em"><tspan x="0" y="0">,</tspan></text>
          <text id="_rig" data-name=" rig" transform="matrix(0.966, -0.259, 0.259, 0.966, 1577.452, -49.904)" fill="#fff" font-size="32" font-family="AktivGroteskEx-Regular, Aktiv Grotesk Ex" letter-spacing="-0.023em"><tspan x="0" y="0" xml:space="preserve"> rig</tspan></text>
          <text id="ht" transform="matrix(0.966, -0.259, 0.259, 0.966, 1627.643, -63.352)" fill="#fff" font-size="32" font-family="AktivGroteskEx-Regular, Aktiv Grotesk Ex" letter-spacing="-0.023em"><tspan x="0" y="0">ht</tspan></text>
          <text id="_3" data-name="?" transform="matrix(0.966, -0.259, 0.259, 0.966, 1661.922, -72.537)" fill="#fff" font-size="32" font-family="AktivGroteskEx-Regular, Aktiv Grotesk Ex" letter-spacing="-0.023em"><tspan x="0" y="0">?</tspan></text>
        </g>
      </g>
    </g>
  </g>
</svg>
