<svg xmlns="http://www.w3.org/2000/svg" width="98" height="98" viewBox="0 0 98 98">
  <g id="Group_329" data-name="Group 329" transform="translate(-103.88 -555.244)">
    <path id="Path_64" data-name="Path 64" d="M0,0H-88.7a4.151,4.151,0,0,1-4.151-4.152v-88.7A4.151,4.151,0,0,1-88.7-97H0a4.152,4.152,0,0,1,4.152,4.152v88.7A4.152,4.152,0,0,1,0,0Z" transform="translate(197.228 652.744)" fill="none" stroke="#f37448" stroke-miterlimit="10" stroke-width="1"/>
    <path id="Path_114" data-name="Path 114" d="M0,0A88.316,88.316,0,0,0-7.338-12.911,141.756,141.756,0,0,0-17.972-26.753a1.121,1.121,0,0,0-.833-.372,1.121,1.121,0,0,0-.833.372A141.669,141.669,0,0,0-30.273-12.911,88.316,88.316,0,0,0-37.611,0C-39.861,5.024-41,9.469-41,13.208a30.056,30.056,0,0,0,1.728,10.54,19.855,19.855,0,0,0,4.788,7.429c3.871,3.728,9.293,5.7,15.681,5.7S-7,34.9-3.125,31.177a19.869,19.869,0,0,0,4.789-7.429,30.057,30.057,0,0,0,1.727-10.54C3.391,9.469,2.25,5.024,0,0M-8.225,13.035A2.021,2.021,0,0,1-10.24,15.05h-4.535v4.535A2.021,2.021,0,0,1-16.79,21.6h-4.031a2.021,2.021,0,0,1-2.015-2.015V15.05H-27.37a2.021,2.021,0,0,1-2.015-2.015V9.005A2.021,2.021,0,0,1-27.37,6.99h4.534V2.455A2.022,2.022,0,0,1-20.821.44h4.031a2.021,2.021,0,0,1,2.015,2.015V6.99h4.535A2.021,2.021,0,0,1-8.225,9.005Z" transform="translate(171.685 599.369)" fill="#f37448"/>
  </g>
</svg>
