<svg xmlns="http://www.w3.org/2000/svg" width="108" height="108" viewBox="0 0 108 108">
  <g id="Group_333" data-name="Group 333" transform="translate(-98.88 -846.042)">
    <g id="Group_332" data-name="Group 332">
      <path id="Path_69" data-name="Path 69" d="M0,0A53.5,53.5,0,0,0,53.5-53.5,53.5,53.5,0,0,0,0-107,53.5,53.5,0,0,0-53.5-53.5,53.5,53.5,0,0,0,0,0Z" transform="translate(152.88 953.542)" fill="none" stroke="#7015db" stroke-width="1"/>
      <path id="Path_131" data-name="Path 131" d="M0,0H0A1.032,1.032,0,0,1-1.032-1.032V-1.72A1.032,1.032,0,0,1,0-2.752,1.032,1.032,0,0,1,1.032-1.72v.688A1.032,1.032,0,0,1,0,0" transform="translate(174.501 878.09)" fill="#7015db"/>
      <path id="Path_132" data-name="Path 132" d="M0,0H0A1.032,1.032,0,0,1-1.032-1.032V-1.72A1.032,1.032,0,0,1,0-2.752,1.032,1.032,0,0,1,1.032-1.72v.688A1.032,1.032,0,0,1,0,0" transform="translate(174.501 883.313)" fill="#7015db"/>
      <path id="Path_133" data-name="Path 133" d="M0,0H0A1.032,1.032,0,0,1,1.032-1.032H1.72A1.032,1.032,0,0,1,2.752,0,1.032,1.032,0,0,1,1.72,1.032H1.032A1.032,1.032,0,0,1,0,0" transform="translate(175.736 879.325)" fill="#7015db"/>
      <path id="Path_134" data-name="Path 134" d="M0,0H0A1.032,1.032,0,0,1,1.032-1.032H1.72A1.032,1.032,0,0,1,2.752,0,1.032,1.032,0,0,1,1.72,1.032H1.032A1.032,1.032,0,0,1,0,0" transform="translate(170.513 879.325)" fill="#7015db"/>
      <path id="Path_135" data-name="Path 135" d="M0,0H0A1.032,1.032,0,0,1-1.032-1.032V-1.72A1.032,1.032,0,0,1,0-2.752,1.032,1.032,0,0,1,1.032-1.72v.688A1.032,1.032,0,0,1,0,0" transform="translate(134.937 866.294)" fill="#7015db"/>
      <path id="Path_136" data-name="Path 136" d="M0,0H0A1.032,1.032,0,0,1-1.032-1.032V-1.72A1.032,1.032,0,0,1,0-2.752,1.032,1.032,0,0,1,1.032-1.72v.688A1.032,1.032,0,0,1,0,0" transform="translate(134.937 871.517)" fill="#7015db"/>
      <path id="Path_137" data-name="Path 137" d="M0,0H0A1.032,1.032,0,0,1,1.032-1.032H1.72A1.032,1.032,0,0,1,2.752,0,1.032,1.032,0,0,1,1.72,1.032H1.032A1.032,1.032,0,0,1,0,0" transform="translate(136.172 867.529)" fill="#7015db"/>
      <path id="Path_138" data-name="Path 138" d="M0,0H0A1.032,1.032,0,0,1,1.032-1.032H1.72A1.032,1.032,0,0,1,2.752,0,1.032,1.032,0,0,1,1.72,1.032H1.032A1.032,1.032,0,0,1,0,0" transform="translate(130.949 867.529)" fill="#7015db"/>
      <path id="Path_139" data-name="Path 139" d="M0,0H0A.775.775,0,0,1-1.1,0L-1.46-.365a.775.775,0,0,1,0-1.1.775.775,0,0,1,1.1,0L0-1.1A.775.775,0,0,1,0,0" transform="translate(128.957 924.95)" fill="#7015db"/>
      <path id="Path_140" data-name="Path 140" d="M0,0H0A.775.775,0,0,1-1.1,0l-.364-.365a.773.773,0,0,1,0-1.1.774.774,0,0,1,1.094,0L0-1.1A.775.775,0,0,1,0,0" transform="translate(131.727 927.72)" fill="#7015db"/>
      <path id="Path_141" data-name="Path 141" d="M0,0H0A.775.775,0,0,1,0-1.1L.365-1.46a.774.774,0,0,1,1.094,0,.773.773,0,0,1,0,1.1L1.1,0A.775.775,0,0,1,0,0" transform="translate(130.268 924.95)" fill="#7015db"/>
      <path id="Path_142" data-name="Path 142" d="M0,0H0A.775.775,0,0,1,0-1.1L.365-1.46a.775.775,0,0,1,1.1,0,.775.775,0,0,1,0,1.1L1.1,0A.775.775,0,0,1,0,0" transform="translate(127.498 927.72)" fill="#7015db"/>
      <path id="Path_143" data-name="Path 143" d="M0,0H-30.81a1.78,1.78,0,0,1-1.78-1.78v-36.5a1.78,1.78,0,0,1,1.78-1.78H0a1.78,1.78,0,0,1,1.78,1.78v36.5A1.78,1.78,0,0,1,0,0" transform="translate(170.279 928.542)" fill="#7015db"/>
      <path id="Path_145" data-name="Path 145" d="M70.6-73.635H59.17v6.286H70.6Z" transform="translate(90 954.042)" fill="#7015db"/>
      <path id="Path_146" data-name="Path 146" d="M0,0H-7.412A.448.448,0,0,0-7.86.448v.861c0,.746-1.562.853-1.562.853H2.01S.448,2.087.448,1.309V.448A.448.448,0,0,0,0,0" transform="translate(158.592 878.245)" fill="#7015db"/>
      <path id="Path_149" data-name="Path 149" d="M0,0H0A1.023,1.023,0,0,0,1.171,1.018,32.188,32.188,0,0,1,5.728.746C7.857.746,9.7,1.211,9.7,1.935a5.826,5.826,0,0,1-.125,1.152.177.177,0,0,0,.175.214h4.311a.179.179,0,0,0,.179-.179V.6h1.889A1.367,1.367,0,0,0,14.887-.761C11.74-1.052,3.5-1.719.767-1A1.03,1.03,0,0,0,0,0" transform="translate(143.417 871.897)" fill="#7015db"/>
    </g>
    <path id="Path_150" data-name="Path 150" d="M0,0H15.7a3.564,3.564,0,0,1,3.563,3.564V13.58A3.563,3.563,0,0,1,15.7,17.143H0A3.564,3.564,0,0,1-3.563,13.58V3.563A3.563,3.563,0,0,1,0,0" transform="translate(147.023 895.037)" fill="#fff"/>
  </g>
</svg>
