<svg xmlns="http://www.w3.org/2000/svg" width="109.001" height="98.454" viewBox="0 0 109.001 98.454">
  <g id="Group_328" data-name="Group 328" transform="translate(-98.379 -414.201)">
    <path id="Path_67" data-name="Path 67" d="M0,0C-.546-14.691-11.32-27.322-26.154-27.322a23.051,23.051,0,0,0-17.79,7.77c-4.121-3.393-8.7-4.117-13.842-4.117-13.17,0-22.978,10.674-22.978,23.844,0,.7.026,2.282.091,2.971-7.97,5.045-13.261,12.633-13.261,22.774,0,10.387,5.551,18.158,13.846,23.15,2.73,12.065,12.63,21.062,25.514,21.062,5.915,0,10.071-1.9,14.531-5.135,4.706,3.237,7.766,5.135,13.915,5.135C-13.244,70.132-3.614,61.8.26,50.214,8.607,44.442,14.067,36.125,14.067,25.2,14.067,14.167,8.49,5.759,0,0Z" transform="translate(192.813 442.023)" fill="none" stroke="#fbe173" stroke-miterlimit="10" stroke-width="1"/>
    <path id="Path_94" data-name="Path 94" d="M0,0H0A1.032,1.032,0,0,1-1.032-1.032V-1.72A1.032,1.032,0,0,1,0-2.752,1.032,1.032,0,0,1,1.032-1.72v.688A1.032,1.032,0,0,1,0,0" transform="translate(174.501 445.637)" fill="#fbe173"/>
    <path id="Path_95" data-name="Path 95" d="M0,0H0A1.032,1.032,0,0,1-1.032-1.032V-1.72A1.032,1.032,0,0,1,0-2.752,1.032,1.032,0,0,1,1.032-1.72v.688A1.032,1.032,0,0,1,0,0" transform="translate(174.501 450.859)" fill="#fbe173"/>
    <path id="Path_96" data-name="Path 96" d="M0,0H0A1.032,1.032,0,0,1,1.032-1.032H1.72A1.032,1.032,0,0,1,2.752,0,1.032,1.032,0,0,1,1.72,1.032H1.032A1.032,1.032,0,0,1,0,0" transform="translate(175.736 446.872)" fill="#fbe173"/>
    <path id="Path_97" data-name="Path 97" d="M0,0H0A1.032,1.032,0,0,1,1.032-1.032H1.72A1.032,1.032,0,0,1,2.752,0,1.032,1.032,0,0,1,1.72,1.032H1.032A1.032,1.032,0,0,1,0,0" transform="translate(170.513 446.872)" fill="#fbe173"/>
    <path id="Path_98" data-name="Path 98" d="M0,0H0A1.032,1.032,0,0,1-1.032-1.032V-1.72A1.032,1.032,0,0,1,0-2.752,1.032,1.032,0,0,1,1.032-1.72v.688A1.032,1.032,0,0,1,0,0" transform="translate(134.937 433.84)" fill="#fbe173"/>
    <path id="Path_99" data-name="Path 99" d="M0,0H0A1.032,1.032,0,0,1-1.032-1.032V-1.72A1.032,1.032,0,0,1,0-2.752,1.032,1.032,0,0,1,1.032-1.72v.688A1.032,1.032,0,0,1,0,0" transform="translate(134.937 439.063)" fill="#fbe173"/>
    <path id="Path_100" data-name="Path 100" d="M0,0H0A1.032,1.032,0,0,1,1.032-1.032H1.72A1.032,1.032,0,0,1,2.752,0,1.032,1.032,0,0,1,1.72,1.032H1.032A1.032,1.032,0,0,1,0,0" transform="translate(136.172 435.075)" fill="#fbe173"/>
    <path id="Path_101" data-name="Path 101" d="M0,0H0A1.032,1.032,0,0,1,1.032-1.032H1.72A1.032,1.032,0,0,1,2.752,0,1.032,1.032,0,0,1,1.72,1.032H1.032A1.032,1.032,0,0,1,0,0" transform="translate(130.949 435.075)" fill="#fbe173"/>
    <path id="Path_102" data-name="Path 102" d="M0,0H0A.775.775,0,0,1-1.1,0L-1.46-.365a.775.775,0,0,1,0-1.1.775.775,0,0,1,1.1,0L0-1.1A.775.775,0,0,1,0,0" transform="translate(128.957 492.497)" fill="#fbe173"/>
    <path id="Path_103" data-name="Path 103" d="M0,0H0A.775.775,0,0,1-1.1,0l-.364-.365a.773.773,0,0,1,0-1.1.774.774,0,0,1,1.094,0L0-1.1A.775.775,0,0,1,0,0" transform="translate(131.727 495.266)" fill="#fbe173"/>
    <path id="Path_104" data-name="Path 104" d="M0,0H0A.775.775,0,0,1,0-1.1L.365-1.46a.774.774,0,0,1,1.094,0,.773.773,0,0,1,0,1.1L1.1,0A.775.775,0,0,1,0,0" transform="translate(130.268 492.497)" fill="#fbe173"/>
    <path id="Path_105" data-name="Path 105" d="M0,0H0A.775.775,0,0,1,0-1.1L.365-1.46a.775.775,0,0,1,1.1,0,.775.775,0,0,1,0,1.1L1.1,0A.775.775,0,0,1,0,0" transform="translate(127.498 495.266)" fill="#fbe173"/>
    <path id="Path_106" data-name="Path 106" d="M0,0H-30.81a1.78,1.78,0,0,1-1.78-1.78v-36.5a1.78,1.78,0,0,1,1.78-1.78H0a1.78,1.78,0,0,1,1.78,1.78v36.5A1.78,1.78,0,0,1,0,0" transform="translate(170.279 496.088)" fill="#fbe173"/>
    <path id="Path_108" data-name="Path 108" d="M70.6-506.089H59.17v6.286H70.6Z" transform="translate(90 954.042)" fill="#fbe173"/>
    <path id="Path_109" data-name="Path 109" d="M0,0H-7.412A.448.448,0,0,0-7.86.448v.861c0,.746-1.562.853-1.562.853H2.01S.448,2.087.448,1.309V.448A.448.448,0,0,0,0,0" transform="translate(158.592 445.791)" fill="#fbe173"/>
    <path id="Path_111" data-name="Path 111" d="M66.65-512.474H63.8v2.964H66.65Z" transform="translate(90 954.042)" fill="#fbe173"/>
    <path id="Path_112" data-name="Path 112" d="M0,0H0A1.023,1.023,0,0,0,1.171,1.018,32.188,32.188,0,0,1,5.728.746C7.857.746,9.7,1.211,9.7,1.935a5.826,5.826,0,0,1-.125,1.152.177.177,0,0,0,.175.214h4.311a.179.179,0,0,0,.179-.179V.6h1.889A1.367,1.367,0,0,0,14.887-.761C11.74-1.052,3.5-1.719.767-1A1.03,1.03,0,0,0,0,0" transform="translate(143.417 439.444)" fill="#fbe173"/>
    <path id="Path_113" data-name="Path 113" d="M0,0H15.7a3.564,3.564,0,0,1,3.563,3.564V13.58A3.563,3.563,0,0,1,15.7,17.143H0A3.564,3.564,0,0,1-3.563,13.58V3.563A3.563,3.563,0,0,1,0,0" transform="translate(147.023 462.583)" fill="#fbe173"/>
    <path id="Path_115" data-name="Path 115" d="M0,0A31.123,31.123,0,0,0-2.6-4.564,50.071,50.071,0,0,0-6.356-9.457a.4.4,0,0,0-.294-.131.4.4,0,0,0-.3.131A50.342,50.342,0,0,0-10.7-4.564,31.123,31.123,0,0,0-13.3,0a11.78,11.78,0,0,0-1.2,4.669A10.614,10.614,0,0,0-13.888,8.4a7.017,7.017,0,0,0,1.693,2.626A7.8,7.8,0,0,0-6.65,13.035a7.8,7.8,0,0,0,5.545-2.014A7.017,7.017,0,0,0,.588,8.4,10.614,10.614,0,0,0,1.2,4.669,11.78,11.78,0,0,0,0,0M-2.909,4.608a.714.714,0,0,1-.712.712h-1.6v1.6a.714.714,0,0,1-.712.712H-7.363a.714.714,0,0,1-.712-.712V5.32h-1.6a.714.714,0,0,1-.712-.712V3.183a.714.714,0,0,1,.712-.712h1.6V.868A.714.714,0,0,1-7.363.156h1.426a.714.714,0,0,1,.712.712v1.6h1.6a.714.714,0,0,1,.712.712Z" transform="translate(161.58 474.12)" fill="#fff"/>
  </g>
</svg>

