<svg xmlns="http://www.w3.org/2000/svg" width="90.422" height="98" viewBox="0 0 90.422 98">
  <g id="Group_327" data-name="Group 327" transform="translate(-107.669 -267.259)">
    <path id="Path_62" data-name="Path 62" d="M0,0V48.99a3.872,3.872,0,0,1-3.895,3.848H-85.527a3.872,3.872,0,0,1-3.895-3.848V.479A44.743,44.743,0,0,1-44.886-44.162C-20.118-44.255,0-24.455,0,0Z" transform="translate(197.591 311.921)" fill="none" stroke="#faaf4a" stroke-miterlimit="10" stroke-width="1"/>
    <path id="Path_70" data-name="Path 70" d="M0,0H-26.6V-30.5A2.507,2.507,0,0,1-24.1-33H-2.505A2.508,2.508,0,0,1,0-30.5ZM-25.6-1H-1V-30.5A1.506,1.506,0,0,0-2.505-32H-24.1a1.506,1.506,0,0,0-1.5,1.5Z" transform="translate(168.88 354.146)" fill="#faaf4a"/>
    <path id="Path_72" data-name="Path 72" d="M68.792-634.448H62.368v-12.8h6.424Z" transform="translate(90 954.042)" fill="#faaf4a"/>
    <path id="Path_73" data-name="Path 73" d="M0,0,3.194-6.388H6.388L3.193,0Z" transform="translate(142.792 313.182)" fill="#faaf4a"/>
    <path id="Path_74" data-name="Path 74" d="M47.663-655.63h3.194v6.388H47.663Z" transform="translate(90 954.042)" fill="#faaf4a"/>
    <path id="Path_75" data-name="Path 75" d="M0,0H-5.405A2.987,2.987,0,0,1-8.414-3.085,3.158,3.158,0,0,1-7.67-5.158a2.935,2.935,0,0,1,2.265-.99,1,1,0,0,1,1,1,1,1,0,0,1-1,1A.97.97,0,0,0-6.414-3.085,1,1,0,0,0-5.405-2H0A1,1,0,0,1,1-1,1,1,0,0,1,0,0" transform="translate(132.969 302.605)" fill="#faaf4a"/>
    <path id="Path_76" data-name="Path 76" d="M0,0A2.942,2.942,0,0,1-3.009-3.063a3.194,3.194,0,0,1,.745-2.084A2.923,2.923,0,0,1,0-6.148H5.405a1,1,0,0,1,1,1,1,1,0,0,1-1,1H0a.921.921,0,0,0-.746.3,1.213,1.213,0,0,0-.263.782A.97.97,0,0,0,0-2,1,1,0,0,1,1-1,1,1,0,0,1,0,0" transform="translate(127.563 306.753)" fill="#faaf4a"/>
    <path id="Path_77" data-name="Path 77" d="M0,0H-7.883V20.218a.909.909,0,0,1-.908.908.908.908,0,0,1-.908-.908V0h-7.884a2.008,2.008,0,0,0-2.008,2.009V25.526h21.6V2.009A2.009,2.009,0,0,0,0,0" transform="translate(164.371 326.121)" fill="#faaf4a"/>
    <path id="Path_79" data-name="Path 79" d="M0,0V-6.424H22.249l3.327,3.346V0Z" transform="translate(142.804 304.817)" fill="#faaf4a"/>
    <path id="Path_80" data-name="Path 80" d="M0,0H0A.9.9,0,0,1-1.273,0L-1.7-.424A.9.9,0,0,1-1.7-1.7a.9.9,0,0,1,1.273,0L0-1.273A.9.9,0,0,1,0,0" transform="translate(177.721 320.885)" fill="#faaf4a"/>
    <path id="Path_81" data-name="Path 81" d="M0,0H0A.9.9,0,0,1-1.273,0L-1.7-.424A.9.9,0,0,1-1.7-1.7a.9.9,0,0,1,1.273,0L0-1.273A.9.9,0,0,1,0,0" transform="translate(180.941 324.105)" fill="#faaf4a"/>
    <path id="Path_82" data-name="Path 82" d="M0,0H0A.9.9,0,0,1,0-1.273L.424-1.7A.9.9,0,0,1,1.7-1.7a.9.9,0,0,1,0,1.273L1.273,0A.9.9,0,0,1,0,0" transform="translate(179.244 320.885)" fill="#faaf4a"/>
    <path id="Path_83" data-name="Path 83" d="M0,0H0A.9.9,0,0,1,0-1.273L.424-1.7A.9.9,0,0,1,1.7-1.7a.9.9,0,0,1,0,1.273L1.273,0A.9.9,0,0,1,0,0" transform="translate(176.024 324.105)" fill="#faaf4a"/>
    <path id="Path_84" data-name="Path 84" d="M0,0H0A.9.9,0,0,1-1.273,0L-1.7-.424A.9.9,0,0,1-1.7-1.7a.9.9,0,0,1,1.273,0L0-1.273A.9.9,0,0,1,0,0" transform="translate(132.207 347.76)" fill="#faaf4a"/>
    <path id="Path_85" data-name="Path 85" d="M0,0H0A.9.9,0,0,1-1.273,0L-1.7-.424A.9.9,0,0,1-1.7-1.7a.9.9,0,0,1,1.273,0L0-1.273A.9.9,0,0,1,0,0" transform="translate(135.427 350.98)" fill="#faaf4a"/>
    <path id="Path_86" data-name="Path 86" d="M0,0H0A.9.9,0,0,1,0-1.273L.424-1.7A.9.9,0,0,1,1.7-1.7a.9.9,0,0,1,0,1.273L1.273,0A.9.9,0,0,1,0,0" transform="translate(133.73 347.76)" fill="#faaf4a"/>
    <path id="Path_87" data-name="Path 87" d="M0,0H0A.9.9,0,0,1,0-1.273L.424-1.7A.9.9,0,0,1,1.7-1.7a.9.9,0,0,1,0,1.273L1.273,0A.9.9,0,0,1,0,0" transform="translate(130.51 350.98)" fill="#faaf4a"/>
    <path id="Path_88" data-name="Path 88" d="M0,0H0A.9.9,0,0,1,1.273,0L4.79,3.518A.9.9,0,0,1,3.518,4.791L0,1.273A.9.9,0,0,1,0,0" transform="translate(127.915 290.581)" fill="#faaf4a"/>
    <path id="Path_89" data-name="Path 89" d="M0,0H0A.9.9,0,0,0,1.273,0L4.79-3.518a.9.9,0,0,0,0-1.272.9.9,0,0,0-1.272,0L0-1.273A.9.9,0,0,0,0,0" transform="translate(127.915 312.63)" fill="#faaf4a"/>
    <path id="Path_90" data-name="Path 90" d="M0,0H0A1.2,1.2,0,0,1-1.47-.849l-.207-.772a1.2,1.2,0,0,1,.849-1.47h0a1.2,1.2,0,0,1,1.469.849l.207.772A1.2,1.2,0,0,1,0,0" transform="translate(173.214 289.504)" fill="#faaf4a"/>
    <path id="Path_91" data-name="Path 91" d="M0,0H0A1.2,1.2,0,0,1-1.47-.848l-.207-.773a1.2,1.2,0,0,1,.849-1.47,1.2,1.2,0,0,1,1.47.849l.207.772A1.2,1.2,0,0,1,0,0" transform="translate(174.786 295.37)" fill="#faaf4a"/>
    <path id="Path_92" data-name="Path 92" d="M0,0H0A1.2,1.2,0,0,1,.848-1.47l.773-.207a1.2,1.2,0,0,1,1.47.849h0A1.2,1.2,0,0,1,2.242.641L1.47.848A1.2,1.2,0,0,1,0,0" transform="translate(174.973 290.52)" fill="#faaf4a"/>
    <path id="Path_93" data-name="Path 93" d="M0,0H0A1.2,1.2,0,0,1,.849-1.47l.772-.207a1.2,1.2,0,0,1,1.47.849A1.2,1.2,0,0,1,2.242.641L1.47.849A1.2,1.2,0,0,1,0,0" transform="translate(169.107 292.091)" fill="#faaf4a"/>
  </g>
</svg>
