<svg xmlns="http://www.w3.org/2000/svg" width="169.956" height="159.1" viewBox="0 0 169.956 159.1">
  <g id="Group_288" data-name="Group 288" transform="translate(87.341 11.809)">
    <path id="Path_2" data-name="Path 2" d="M0,0,19.815-10.644a5.093,5.093,0,0,1,6.985,2.3l9.53,20.3a5.074,5.074,0,0,0,3.958,2.855l22.579,2.86a4.97,4.97,0,0,1,4.322,5.857l-4.42,21.748a4.87,4.87,0,0,0,1.516,4.562L81,65.108a4.813,4.813,0,0,1,.009,7.179L64.33,87.175A4.769,4.769,0,0,0,62.825,91.7L67.3,113.553a4.832,4.832,0,0,1-4.308,5.758l-22.574,2.342a4.908,4.908,0,0,0-3.951,2.764L26.984,144.5A5.006,5.006,0,0,1,20,146.637l-19.84-11.1a5.1,5.1,0,0,0-4.888-.056L-24.54,146.126a5.093,5.093,0,0,1-6.985-2.3l-9.53-20.3a5.075,5.075,0,0,0-3.958-2.855l-22.58-2.86a4.972,4.972,0,0,1-4.322-5.857l4.421-21.747a4.871,4.871,0,0,0-1.516-4.563L-85.729,70.374a4.813,4.813,0,0,1-.009-7.18l16.683-14.887a4.774,4.774,0,0,0,1.5-4.529l-4.473-21.849a4.833,4.833,0,0,1,4.308-5.759l22.573-2.341a4.908,4.908,0,0,0,3.951-2.764l9.482-20.082a5.005,5.005,0,0,1,6.98-2.138L-4.888-.056A5.1,5.1,0,0,0,0,0" fill="#f37448"/>
  </g>
</svg>
