<svg xmlns="http://www.w3.org/2000/svg" width="98" height="98" viewBox="0 0 98 98">
  <g id="Group_339" data-name="Group 339" transform="translate(-103.88 -638.672)">
    <path id="Path_160" data-name="Path 160" d="M0,0H-88.7a4.151,4.151,0,0,1-4.151-4.152v-88.7A4.151,4.151,0,0,1-88.7-97H0a4.152,4.152,0,0,1,4.152,4.152v88.7A4.152,4.152,0,0,1,0,0Z" transform="translate(197.228 736.172)" fill="none" stroke="#f37448" stroke-miterlimit="10" stroke-width="1"/>
    <path id="Path_182" data-name="Path 182" d="M0,0H-27.006a2.5,2.5,0,0,1-2.5-2.5v-9.459a2,2,0,0,1,.586-1.415l5.814-5.814H-3.9l5.814,5.814A2,2,0,0,1,2.5-11.956V-2.5A2.5,2.5,0,0,1,0,0" transform="translate(166.783 721.005)" fill="#f37448"/>
    <path id="Path_183" data-name="Path 183" d="M0,0-5.814,5.814h-19.2L-30.828,0a2,2,0,0,1-.586-1.415v-9.467a2.5,2.5,0,0,1,2.5-2.5H-1.918a2.5,2.5,0,0,1,2.5,2.5v9.467A2,2,0,0,1,0,0" transform="translate(168.694 683.206)" fill="#f37448"/>
    <path id="Path_184" data-name="Path 184" d="M0,0H-12.8V-5.595A2.005,2.005,0,0,1-10.8-7.6h8.79A2.005,2.005,0,0,1,0-5.595Z" transform="translate(159.68 667.819)" fill="#f37448"/>
    <path id="Path_186" data-name="Path 186" d="M72.88-211.158H53.68V-223.94h19.2Z" transform="translate(90 912.96)" fill="#fff" stroke="#f37448" stroke-miterlimit="10" stroke-width="1"/>
    <path id="Path_187" data-name="Path 187" d="M0,0A1.162,1.162,0,0,0,.529-1.554L.158-2.339a1.162,1.162,0,0,0-1.529-.6,1.159,1.159,0,0,0-.6,1.529q.014.032.03.063l.371.785A1.159,1.159,0,0,0-.03.014Z" transform="translate(166.886 655.376)" fill="#f37448"/>
    <path id="Path_188" data-name="Path 188" d="M0,0A1.162,1.162,0,0,0,.553-1.546,1.162,1.162,0,0,0-.993-2.1l-.782.37A1.161,1.161,0,0,0-2.327-.185,1.162,1.162,0,0,0-.781.37Z" transform="translate(165.628 658.831)" fill="#f37448"/>
    <path id="Path_189" data-name="Path 189" d="M0,0A1.161,1.161,0,0,0,.553-1.546,1.162,1.162,0,0,0-.993-2.1l-.782.37A1.161,1.161,0,0,0-2.327-.185,1.161,1.161,0,0,0-.782.369Z" transform="translate(171.105 656.241)" fill="#f37448"/>
    <path id="Path_190" data-name="Path 190" d="M0,0A1.163,1.163,0,0,0,.529-1.554L.157-2.34a1.16,1.16,0,0,0-1.528-.6,1.159,1.159,0,0,0-.6,1.528q.013.031.03.063l.372.786A1.161,1.161,0,0,0-.031.015Z" transform="translate(169.482 660.866)" fill="#f37448"/>
    <path id="Path_191" data-name="Path 191" d="M0,0A1.163,1.163,0,0,0,.528-1.555L.157-2.34A1.161,1.161,0,0,0-1.4-2.873,1.16,1.16,0,0,0-1.94-1.349l.371.785A1.162,1.162,0,0,0-.031.015Z" transform="translate(130.206 693.232)" fill="#f37448"/>
    <path id="Path_192" data-name="Path 192" d="M0,0A1.161,1.161,0,0,0,.552-1.548,1.162,1.162,0,0,0-.994-2.1l-.784.371A1.16,1.16,0,0,0-2.329-.187,1.16,1.16,0,0,0-.784.37Z" transform="translate(128.947 696.688)" fill="#f37448"/>
    <path id="Path_193" data-name="Path 193" d="M0,0A1.162,1.162,0,0,0,.552-1.548,1.162,1.162,0,0,0-.994-2.1l-.783.37A1.161,1.161,0,0,0-2.329-.187,1.161,1.161,0,0,0-.783.37Z" transform="translate(134.425 694.099)" fill="#f37448"/>
    <path id="Path_194" data-name="Path 194" d="M0,0A1.163,1.163,0,0,0,.529-1.554l-.37-.782A1.162,1.162,0,0,0-1.395-2.87a1.161,1.161,0,0,0-.543,1.525l.37.783A1.16,1.16,0,0,0-.031.015Z" transform="translate(132.801 698.722)" fill="#f37448"/>
    <path id="Path_195" data-name="Path 195" d="M0,0A.93.93,0,0,0,.422-1.244l-.3-.628A.929.929,0,0,0-1.117-2.3a.928.928,0,0,0-.435,1.219l.3.628A.929.929,0,0,0-.025.012Z" transform="translate(175.346 699.441)" fill="#f37448"/>
    <path id="Path_196" data-name="Path 196" d="M0,0A.929.929,0,0,0,.441-1.239.929.929,0,0,0-.8-1.682l-.627.3A.928.928,0,0,0-1.863-.149.929.929,0,0,0-.627.3Z" transform="translate(174.34 702.205)" fill="#f37448"/>
    <path id="Path_197" data-name="Path 197" d="M0,0A.929.929,0,0,0,.441-1.239.929.929,0,0,0-.8-1.682l-.626.3A.928.928,0,0,0-1.863-.149.929.929,0,0,0-.626.3Z" transform="translate(178.722 700.134)" fill="#f37448"/>
    <path id="Path_198" data-name="Path 198" d="M0,0A.93.93,0,0,0,.423-1.243l-.3-.626A.931.931,0,0,0-1.116-2.3a.931.931,0,0,0-.435,1.221l.3.626A.929.929,0,0,0-.025.012Z" transform="translate(177.422 703.833)" fill="#f37448"/>
  </g>
</svg>
